<svg xmlns="http://www.w3.org/2000/svg" xmlns:xlink="http://www.w3.org/1999/xlink" width="1600" zoomAndPan="magnify" viewBox="0 0 1200 299.999988" height="400" preserveAspectRatio="xMidYMid meet" version="1.0"><defs><g/></defs><g fill="#000000" fill-opacity="1"><g transform="translate(44.263093, 269.411034)"><g><path d="M 198.578125 -27.296875 C 201.390625 -20.148438 204.632812 -14.953125 208.3125 -11.703125 C 212 -8.453125 215.578125 -6.71875 219.046875 -6.5 L 219.046875 0 C 206.046875 -0.644531 189.582031 -0.96875 169.65625 -0.96875 C 147.550781 -0.96875 131.082031 -0.644531 120.25 0 L 120.25 -6.5 C 128.476562 -6.9375 134.328125 -7.96875 137.796875 -9.59375 C 141.265625 -11.21875 143 -14.085938 143 -18.203125 C 143 -22.097656 141.695312 -27.296875 139.09375 -33.796875 L 119.59375 -87.09375 L 48.75 -87.09375 L 40.296875 -64.671875 C 34.234375 -49.078125 31.203125 -37.050781 31.203125 -28.59375 C 31.203125 -20.582031 33.640625 -15.003906 38.515625 -11.859375 C 43.390625 -8.722656 50.59375 -6.9375 60.125 -6.5 L 60.125 0 C 45.394531 -0.644531 31.960938 -0.96875 19.828125 -0.96875 C 9.859375 -0.96875 1.625 -0.644531 -4.875 0 L -4.875 -6.5 C 5.738281 -8.445312 15.054688 -19.820312 23.078125 -40.625 L 97.171875 -230.75 C 99.554688 -230.53125 103.347656 -230.421875 108.546875 -230.421875 C 113.742188 -230.421875 117.425781 -230.53125 119.59375 -230.75 Z M 117.328125 -93.59375 L 85.15625 -181.34375 L 51.34375 -93.59375 Z M 117.328125 -93.59375 "/></g></g></g><g fill="#000000" fill-opacity="1"><g transform="translate(261.036033, 269.411034)"><g><path d="M 231.40625 -14.296875 C 225.550781 -7.578125 219.265625 -2.757812 212.546875 0.15625 C 205.828125 3.082031 197.703125 4.546875 188.171875 4.546875 C 175.609375 4.546875 165.695312 1.894531 158.4375 -3.40625 C 151.175781 -8.71875 146.460938 -17.765625 144.296875 -30.546875 L 138.453125 -63.046875 C 135.628906 -78.867188 132.210938 -90.515625 128.203125 -97.984375 C 124.203125 -105.460938 117.539062 -109.203125 108.21875 -109.203125 L 87.09375 -109.203125 L 87.09375 -34.453125 C 87.09375 -26.210938 87.6875 -20.25 88.875 -16.5625 C 90.070312 -12.882812 92.296875 -10.394531 95.546875 -9.09375 C 98.796875 -7.800781 104.101562 -6.9375 111.46875 -6.5 L 111.46875 0 C 99.769531 -0.644531 83.414062 -0.96875 62.40625 -0.96875 C 39.21875 -0.96875 22.097656 -0.644531 11.046875 0 L 11.046875 -6.5 C 18.203125 -6.9375 23.457031 -7.800781 26.8125 -9.09375 C 30.164062 -10.394531 32.4375 -12.882812 33.625 -16.5625 C 34.820312 -20.25 35.421875 -26.210938 35.421875 -34.453125 L 35.421875 -195.65625 C 35.421875 -203.882812 34.820312 -209.835938 33.625 -213.515625 C 32.4375 -217.203125 30.164062 -219.695312 26.8125 -221 C 23.457031 -222.300781 18.203125 -223.164062 11.046875 -223.59375 L 11.046875 -230.09375 C 22.097656 -229.445312 38.566406 -229.125 60.453125 -229.125 L 96.53125 -229.453125 C 100.863281 -229.671875 105.84375 -229.78125 111.46875 -229.78125 C 141.375 -229.78125 163.851562 -224.90625 178.90625 -215.15625 C 193.96875 -205.40625 201.5 -191.425781 201.5 -173.21875 C 201.5 -157.84375 195.863281 -144.300781 184.59375 -132.59375 C 173.332031 -120.894531 154.703125 -113.53125 128.703125 -110.5 C 148.203125 -108.769531 162.71875 -104.546875 172.25 -97.828125 C 181.78125 -91.109375 187.957031 -81.03125 190.78125 -67.59375 L 198.25 -34.125 C 199.976562 -25.457031 201.976562 -19.390625 204.25 -15.921875 C 206.53125 -12.453125 209.726562 -10.71875 213.84375 -10.71875 C 216.445312 -10.9375 218.671875 -11.585938 220.515625 -12.671875 C 222.359375 -13.753906 224.46875 -15.597656 226.84375 -18.203125 Z M 107.25 -223.59375 C 101.394531 -223.59375 97.113281 -222.832031 94.40625 -221.3125 C 91.695312 -219.800781 89.800781 -217.09375 88.71875 -213.1875 C 87.632812 -209.289062 87.09375 -203.445312 87.09375 -195.65625 L 87.09375 -115.703125 L 101.078125 -115.703125 C 118.835938 -115.703125 131.019531 -120.410156 137.625 -129.828125 C 144.238281 -139.253906 147.546875 -152.53125 147.546875 -169.65625 C 147.546875 -187.414062 144.40625 -200.84375 138.125 -209.9375 C 131.84375 -219.039062 121.550781 -223.59375 107.25 -223.59375 Z M 107.25 -223.59375 "/></g></g></g><g fill="#000000" fill-opacity="1"><g transform="translate(485.933865, 269.411034)"><g><path d="M 218.078125 -223.59375 C 210.921875 -222.507812 205.664062 -220.664062 202.3125 -218.0625 C 198.957031 -215.46875 196.679688 -211.351562 195.484375 -205.71875 C 194.296875 -200.09375 193.703125 -191.753906 193.703125 -180.703125 L 193.703125 -94.578125 C 193.703125 -63.585938 189.257812 -40.617188 180.375 -25.671875 C 174.519531 -16.140625 166.066406 -8.71875 155.015625 -3.40625 C 143.972656 1.894531 130.4375 4.546875 114.40625 4.546875 C 89.269531 4.546875 69.769531 -0.867188 55.90625 -11.703125 C 45.9375 -19.710938 39.21875 -29.835938 35.75 -42.078125 C 32.28125 -54.328125 30.546875 -71.5 30.546875 -93.59375 L 30.546875 -195.65625 C 30.546875 -203.882812 29.945312 -209.835938 28.75 -213.515625 C 27.5625 -217.203125 25.289062 -219.695312 21.9375 -221 C 18.582031 -222.300781 13.328125 -223.164062 6.171875 -223.59375 L 6.171875 -230.09375 C 17.222656 -229.445312 34.125 -229.125 56.875 -229.125 C 79.40625 -229.125 96.628906 -229.445312 108.546875 -230.09375 L 108.546875 -223.59375 C 100.742188 -223.164062 95.054688 -222.300781 91.484375 -221 C 87.910156 -219.695312 85.472656 -217.203125 84.171875 -213.515625 C 82.867188 -209.835938 82.21875 -203.882812 82.21875 -195.65625 L 82.21875 -73.125 C 82.21875 -50.375 85.519531 -33.632812 92.125 -22.90625 C 98.738281 -12.1875 110.390625 -6.828125 127.078125 -6.828125 C 148.742188 -6.828125 164.015625 -14.140625 172.890625 -28.765625 C 181.773438 -43.390625 186.21875 -64.132812 186.21875 -91 L 186.21875 -176.796875 C 186.21875 -189.367188 185.457031 -198.6875 183.9375 -204.75 C 182.425781 -210.8125 179.503906 -215.195312 175.171875 -217.90625 C 170.835938 -220.613281 164.015625 -222.507812 154.703125 -223.59375 L 154.703125 -230.09375 C 162.929688 -229.445312 174.628906 -229.125 189.796875 -229.125 C 201.929688 -229.125 211.359375 -229.445312 218.078125 -230.09375 Z M 218.078125 -223.59375 "/></g></g></g><g fill="#000000" fill-opacity="1"><g transform="translate(709.856771, 269.411034)"><g><path d="M 225.21875 -223.59375 C 218.070312 -222.507812 212.816406 -220.664062 209.453125 -218.0625 C 206.097656 -215.46875 203.820312 -211.351562 202.625 -205.71875 C 201.4375 -200.09375 200.84375 -191.753906 200.84375 -180.703125 L 200.84375 0.65625 L 193.046875 0.328125 L 184.28125 0.65625 L 43.21875 -178.09375 L 43.21875 -53.296875 C 43.21875 -40.515625 43.867188 -31.144531 45.171875 -25.1875 C 46.472656 -19.226562 49.289062 -14.894531 53.625 -12.1875 C 57.957031 -9.476562 65 -7.582031 74.75 -6.5 L 74.75 0 C 66.300781 -0.644531 54.601562 -0.96875 39.65625 -0.96875 C 27.738281 -0.96875 18.3125 -0.644531 11.375 0 L 11.375 -6.5 C 18.519531 -7.582031 23.769531 -9.421875 27.125 -12.015625 C 30.488281 -14.617188 32.765625 -18.738281 33.953125 -24.375 C 35.148438 -30.007812 35.75 -38.351562 35.75 -49.40625 L 35.75 -195.65625 C 35.75 -203.882812 35.148438 -209.835938 33.953125 -213.515625 C 32.765625 -217.203125 30.488281 -219.695312 27.125 -221 C 23.769531 -222.300781 18.519531 -223.164062 11.375 -223.59375 L 11.375 -230.09375 C 18.3125 -229.445312 27.738281 -229.125 39.65625 -229.125 C 50.488281 -229.125 59.800781 -229.445312 67.59375 -230.09375 L 193.375 -75.078125 L 193.375 -176.796875 C 193.375 -189.578125 192.722656 -198.945312 191.421875 -204.90625 C 190.117188 -210.863281 187.300781 -215.195312 182.96875 -217.90625 C 178.632812 -220.613281 171.59375 -222.507812 161.84375 -223.59375 L 161.84375 -230.09375 C 170.300781 -229.445312 182.003906 -229.125 196.953125 -229.125 C 209.085938 -229.125 218.507812 -229.445312 225.21875 -230.09375 Z M 225.21875 -223.59375 "/></g></g></g><g fill="#000000" fill-opacity="1"><g transform="translate(944.504535, 269.411034)"><g><path d="M 198.578125 -27.296875 C 201.390625 -20.148438 204.632812 -14.953125 208.3125 -11.703125 C 212 -8.453125 215.578125 -6.71875 219.046875 -6.5 L 219.046875 0 C 206.046875 -0.644531 189.582031 -0.96875 169.65625 -0.96875 C 147.550781 -0.96875 131.082031 -0.644531 120.25 0 L 120.25 -6.5 C 128.476562 -6.9375 134.328125 -7.96875 137.796875 -9.59375 C 141.265625 -11.21875 143 -14.085938 143 -18.203125 C 143 -22.097656 141.695312 -27.296875 139.09375 -33.796875 L 119.59375 -87.09375 L 48.75 -87.09375 L 40.296875 -64.671875 C 34.234375 -49.078125 31.203125 -37.050781 31.203125 -28.59375 C 31.203125 -20.582031 33.640625 -15.003906 38.515625 -11.859375 C 43.390625 -8.722656 50.59375 -6.9375 60.125 -6.5 L 60.125 0 C 45.394531 -0.644531 31.960938 -0.96875 19.828125 -0.96875 C 9.859375 -0.96875 1.625 -0.644531 -4.875 0 L -4.875 -6.5 C 5.738281 -8.445312 15.054688 -19.820312 23.078125 -40.625 L 97.171875 -230.75 C 99.554688 -230.53125 103.347656 -230.421875 108.546875 -230.421875 C 113.742188 -230.421875 117.425781 -230.53125 119.59375 -230.75 Z M 117.328125 -93.59375 L 85.15625 -181.34375 L 51.34375 -93.59375 Z M 117.328125 -93.59375 "/></g></g></g></svg>