<svg xmlns="http://www.w3.org/2000/svg" xmlns:xlink="http://www.w3.org/1999/xlink" width="100" zoomAndPan="magnify" viewBox="0 0 75 74.999997" height="100" preserveAspectRatio="xMidYMid meet" version="1.0"><defs><g/></defs><g fill="#ffffff" fill-opacity="1"><g transform="translate(4.531118, 41.592765)"><g><path d="M 11 -1.515625 C 11.15625 -1.117188 11.332031 -0.828125 11.53125 -0.640625 C 11.738281 -0.460938 11.9375 -0.367188 12.125 -0.359375 L 12.125 0 C 11.40625 -0.03125 10.492188 -0.046875 9.390625 -0.046875 C 8.171875 -0.046875 7.257812 -0.03125 6.65625 0 L 6.65625 -0.359375 C 7.113281 -0.378906 7.4375 -0.4375 7.625 -0.53125 C 7.820312 -0.625 7.921875 -0.785156 7.921875 -1.015625 C 7.921875 -1.222656 7.847656 -1.507812 7.703125 -1.875 L 6.625 -4.828125 L 2.703125 -4.828125 L 2.234375 -3.578125 C 1.898438 -2.710938 1.734375 -2.046875 1.734375 -1.578125 C 1.734375 -1.140625 1.863281 -0.832031 2.125 -0.65625 C 2.394531 -0.476562 2.796875 -0.378906 3.328125 -0.359375 L 3.328125 0 C 2.515625 -0.03125 1.769531 -0.046875 1.09375 -0.046875 C 0.539062 -0.046875 0.0859375 -0.03125 -0.265625 0 L -0.265625 -0.359375 C 0.316406 -0.460938 0.832031 -1.09375 1.28125 -2.25 L 5.375 -12.78125 C 5.507812 -12.769531 5.722656 -12.765625 6.015625 -12.765625 C 6.296875 -12.765625 6.5 -12.769531 6.625 -12.78125 Z M 6.5 -5.1875 L 4.71875 -10.046875 L 2.84375 -5.1875 Z M 6.5 -5.1875 "/></g></g></g><g fill="#ffffff" fill-opacity="1"><g transform="translate(16.537079, 41.592765)"><g><path d="M 12.8125 -0.796875 C 12.488281 -0.421875 12.140625 -0.15625 11.765625 0 C 11.398438 0.164062 10.953125 0.25 10.421875 0.25 C 9.722656 0.25 9.171875 0.101562 8.765625 -0.1875 C 8.367188 -0.476562 8.109375 -0.976562 7.984375 -1.6875 L 7.671875 -3.484375 C 7.515625 -4.367188 7.320312 -5.015625 7.09375 -5.421875 C 6.875 -5.835938 6.507812 -6.046875 6 -6.046875 L 4.828125 -6.046875 L 4.828125 -1.90625 C 4.828125 -1.445312 4.859375 -1.113281 4.921875 -0.90625 C 4.984375 -0.707031 5.101562 -0.570312 5.28125 -0.5 C 5.46875 -0.425781 5.765625 -0.378906 6.171875 -0.359375 L 6.171875 0 C 5.523438 -0.03125 4.617188 -0.046875 3.453125 -0.046875 C 2.171875 -0.046875 1.222656 -0.03125 0.609375 0 L 0.609375 -0.359375 C 1.003906 -0.378906 1.296875 -0.425781 1.484375 -0.5 C 1.671875 -0.570312 1.796875 -0.707031 1.859375 -0.90625 C 1.929688 -1.113281 1.96875 -1.445312 1.96875 -1.90625 L 1.96875 -10.828125 C 1.96875 -11.285156 1.929688 -11.613281 1.859375 -11.8125 C 1.796875 -12.019531 1.671875 -12.160156 1.484375 -12.234375 C 1.296875 -12.304688 1.003906 -12.359375 0.609375 -12.390625 L 0.609375 -12.75 C 1.222656 -12.707031 2.132812 -12.6875 3.34375 -12.6875 L 5.34375 -12.703125 C 5.582031 -12.710938 5.859375 -12.71875 6.171875 -12.71875 C 7.828125 -12.71875 9.070312 -12.445312 9.90625 -11.90625 C 10.738281 -11.375 11.15625 -10.601562 11.15625 -9.59375 C 11.15625 -8.738281 10.84375 -7.988281 10.21875 -7.34375 C 9.59375 -6.695312 8.5625 -6.289062 7.125 -6.125 C 8.207031 -6.019531 9.007812 -5.78125 9.53125 -5.40625 C 10.0625 -5.039062 10.40625 -4.488281 10.5625 -3.75 L 10.984375 -1.890625 C 11.078125 -1.410156 11.1875 -1.070312 11.3125 -0.875 C 11.4375 -0.6875 11.613281 -0.59375 11.84375 -0.59375 C 11.988281 -0.601562 12.109375 -0.640625 12.203125 -0.703125 C 12.304688 -0.765625 12.425781 -0.867188 12.5625 -1.015625 Z M 5.9375 -12.390625 C 5.613281 -12.390625 5.375 -12.34375 5.21875 -12.25 C 5.070312 -12.164062 4.96875 -12.015625 4.90625 -11.796875 C 4.851562 -11.585938 4.828125 -11.265625 4.828125 -10.828125 L 4.828125 -6.40625 L 5.59375 -6.40625 C 6.582031 -6.40625 7.257812 -6.664062 7.625 -7.1875 C 7.988281 -7.707031 8.171875 -8.441406 8.171875 -9.390625 C 8.171875 -10.378906 7.992188 -11.125 7.640625 -11.625 C 7.296875 -12.132812 6.726562 -12.390625 5.9375 -12.390625 Z M 5.9375 -12.390625 "/></g></g></g><g fill="#ffffff" fill-opacity="1"><g transform="translate(28.993045, 41.592765)"><g><path d="M 12.078125 -12.390625 C 11.679688 -12.328125 11.390625 -12.222656 11.203125 -12.078125 C 11.015625 -11.929688 10.890625 -11.703125 10.828125 -11.390625 C 10.765625 -11.078125 10.734375 -10.617188 10.734375 -10.015625 L 10.734375 -5.234375 C 10.734375 -3.515625 10.484375 -2.242188 9.984375 -1.421875 C 9.660156 -0.890625 9.191406 -0.476562 8.578125 -0.1875 C 7.972656 0.101562 7.226562 0.25 6.34375 0.25 C 4.945312 0.25 3.863281 -0.046875 3.09375 -0.640625 C 2.539062 -1.085938 2.164062 -1.648438 1.96875 -2.328125 C 1.78125 -3.003906 1.6875 -3.957031 1.6875 -5.1875 L 1.6875 -10.828125 C 1.6875 -11.285156 1.65625 -11.613281 1.59375 -11.8125 C 1.53125 -12.019531 1.40625 -12.160156 1.21875 -12.234375 C 1.03125 -12.304688 0.738281 -12.359375 0.34375 -12.390625 L 0.34375 -12.75 C 0.957031 -12.707031 1.894531 -12.6875 3.15625 -12.6875 C 4.394531 -12.6875 5.347656 -12.707031 6.015625 -12.75 L 6.015625 -12.390625 C 5.578125 -12.359375 5.257812 -12.304688 5.0625 -12.234375 C 4.863281 -12.160156 4.726562 -12.019531 4.65625 -11.8125 C 4.582031 -11.613281 4.546875 -11.285156 4.546875 -10.828125 L 4.546875 -4.046875 C 4.546875 -2.785156 4.726562 -1.859375 5.09375 -1.265625 C 5.46875 -0.671875 6.113281 -0.375 7.03125 -0.375 C 8.238281 -0.375 9.085938 -0.78125 9.578125 -1.59375 C 10.066406 -2.40625 10.3125 -3.554688 10.3125 -5.046875 L 10.3125 -9.796875 C 10.3125 -10.484375 10.269531 -10.992188 10.1875 -11.328125 C 10.101562 -11.671875 9.941406 -11.914062 9.703125 -12.0625 C 9.460938 -12.21875 9.082031 -12.328125 8.5625 -12.390625 L 8.5625 -12.75 C 9.019531 -12.707031 9.671875 -12.6875 10.515625 -12.6875 C 11.179688 -12.6875 11.703125 -12.707031 12.078125 -12.75 Z M 12.078125 -12.390625 "/></g></g></g><g fill="#ffffff" fill-opacity="1"><g transform="translate(41.395007, 41.592765)"><g><path d="M 12.46875 -12.390625 C 12.070312 -12.328125 11.78125 -12.222656 11.59375 -12.078125 C 11.414062 -11.929688 11.289062 -11.703125 11.21875 -11.390625 C 11.15625 -11.078125 11.125 -10.617188 11.125 -10.015625 L 11.125 0.03125 L 10.6875 0.015625 L 10.203125 0.03125 L 2.390625 -9.859375 L 2.390625 -2.953125 C 2.390625 -2.242188 2.425781 -1.722656 2.5 -1.390625 C 2.570312 -1.066406 2.726562 -0.828125 2.96875 -0.671875 C 3.207031 -0.523438 3.597656 -0.421875 4.140625 -0.359375 L 4.140625 0 C 3.671875 -0.03125 3.023438 -0.046875 2.203125 -0.046875 C 1.535156 -0.046875 1.007812 -0.03125 0.625 0 L 0.625 -0.359375 C 1.019531 -0.421875 1.3125 -0.519531 1.5 -0.65625 C 1.6875 -0.800781 1.8125 -1.03125 1.875 -1.34375 C 1.945312 -1.65625 1.984375 -2.117188 1.984375 -2.734375 L 1.984375 -10.828125 C 1.984375 -11.285156 1.945312 -11.613281 1.875 -11.8125 C 1.8125 -12.019531 1.6875 -12.160156 1.5 -12.234375 C 1.3125 -12.304688 1.019531 -12.359375 0.625 -12.390625 L 0.625 -12.75 C 1.007812 -12.707031 1.535156 -12.6875 2.203125 -12.6875 C 2.796875 -12.6875 3.3125 -12.707031 3.75 -12.75 L 10.703125 -4.15625 L 10.703125 -9.796875 C 10.703125 -10.503906 10.664062 -11.019531 10.59375 -11.34375 C 10.53125 -11.675781 10.378906 -11.914062 10.140625 -12.0625 C 9.898438 -12.21875 9.507812 -12.328125 8.96875 -12.390625 L 8.96875 -12.75 C 9.4375 -12.707031 10.082031 -12.6875 10.90625 -12.6875 C 11.582031 -12.6875 12.101562 -12.707031 12.46875 -12.75 Z M 12.46875 -12.390625 "/></g></g></g><g fill="#ffffff" fill-opacity="1"><g transform="translate(54.390962, 41.592765)"><g><path d="M 11 -1.515625 C 11.15625 -1.117188 11.332031 -0.828125 11.53125 -0.640625 C 11.738281 -0.460938 11.9375 -0.367188 12.125 -0.359375 L 12.125 0 C 11.40625 -0.03125 10.492188 -0.046875 9.390625 -0.046875 C 8.171875 -0.046875 7.257812 -0.03125 6.65625 0 L 6.65625 -0.359375 C 7.113281 -0.378906 7.4375 -0.4375 7.625 -0.53125 C 7.820312 -0.625 7.921875 -0.785156 7.921875 -1.015625 C 7.921875 -1.222656 7.847656 -1.507812 7.703125 -1.875 L 6.625 -4.828125 L 2.703125 -4.828125 L 2.234375 -3.578125 C 1.898438 -2.710938 1.734375 -2.046875 1.734375 -1.578125 C 1.734375 -1.140625 1.863281 -0.832031 2.125 -0.65625 C 2.394531 -0.476562 2.796875 -0.378906 3.328125 -0.359375 L 3.328125 0 C 2.515625 -0.03125 1.769531 -0.046875 1.09375 -0.046875 C 0.539062 -0.046875 0.0859375 -0.03125 -0.265625 0 L -0.265625 -0.359375 C 0.316406 -0.460938 0.832031 -1.09375 1.28125 -2.25 L 5.375 -12.78125 C 5.507812 -12.769531 5.722656 -12.765625 6.015625 -12.765625 C 6.296875 -12.765625 6.5 -12.769531 6.625 -12.78125 Z M 6.5 -5.1875 L 4.71875 -10.046875 L 2.84375 -5.1875 Z M 6.5 -5.1875 "/></g></g></g><g fill="#ffffff" fill-opacity="1"><g transform="translate(66.396923, 41.592765)"><g><path d="M 2.4375 -2.515625 C 2.894531 -2.515625 3.257812 -2.390625 3.53125 -2.140625 C 3.8125 -1.898438 3.953125 -1.566406 3.953125 -1.140625 C 3.953125 -0.703125 3.8125 -0.359375 3.53125 -0.109375 C 3.257812 0.128906 2.894531 0.25 2.4375 0.25 C 1.96875 0.25 1.59375 0.128906 1.3125 -0.109375 C 1.039062 -0.359375 0.90625 -0.703125 0.90625 -1.140625 C 0.90625 -1.566406 1.039062 -1.898438 1.3125 -2.140625 C 1.59375 -2.390625 1.96875 -2.515625 2.4375 -2.515625 Z M 2.4375 -2.515625 "/></g></g></g><g fill="#000000" fill-opacity="1"><g transform="translate(1.254469, 45.329532)"><g><path d="M 12.25 -1.6875 C 12.425781 -1.238281 12.625 -0.914062 12.84375 -0.71875 C 13.070312 -0.519531 13.296875 -0.414062 13.515625 -0.40625 L 13.515625 0 C 12.710938 -0.0390625 11.695312 -0.0625 10.46875 -0.0625 C 9.101562 -0.0625 8.085938 -0.0390625 7.421875 0 L 7.421875 -0.40625 C 7.921875 -0.425781 8.28125 -0.484375 8.5 -0.578125 C 8.71875 -0.679688 8.828125 -0.863281 8.828125 -1.125 C 8.828125 -1.363281 8.742188 -1.679688 8.578125 -2.078125 L 7.375 -5.375 L 3 -5.375 L 2.484375 -3.984375 C 2.109375 -3.023438 1.921875 -2.285156 1.921875 -1.765625 C 1.921875 -1.265625 2.070312 -0.914062 2.375 -0.71875 C 2.675781 -0.53125 3.117188 -0.425781 3.703125 -0.40625 L 3.703125 0 C 2.796875 -0.0390625 1.96875 -0.0625 1.21875 -0.0625 C 0.601562 -0.0625 0.0976562 -0.0390625 -0.296875 0 L -0.296875 -0.40625 C 0.359375 -0.519531 0.929688 -1.21875 1.421875 -2.5 L 6 -14.234375 C 6.144531 -14.222656 6.378906 -14.21875 6.703125 -14.21875 C 7.015625 -14.21875 7.238281 -14.222656 7.375 -14.234375 Z M 7.234375 -5.78125 L 5.25 -11.1875 L 3.171875 -5.78125 Z M 7.234375 -5.78125 "/></g></g></g><g fill="#000000" fill-opacity="1"><g transform="translate(14.623582, 45.329532)"><g><path d="M 14.265625 -0.875 C 13.910156 -0.46875 13.523438 -0.175781 13.109375 0 C 12.691406 0.1875 12.191406 0.28125 11.609375 0.28125 C 10.828125 0.28125 10.210938 0.117188 9.765625 -0.203125 C 9.316406 -0.535156 9.03125 -1.097656 8.90625 -1.890625 L 8.546875 -3.890625 C 8.367188 -4.867188 8.15625 -5.585938 7.90625 -6.046875 C 7.65625 -6.503906 7.242188 -6.734375 6.671875 -6.734375 L 5.375 -6.734375 L 5.375 -2.125 C 5.375 -1.613281 5.410156 -1.242188 5.484375 -1.015625 C 5.554688 -0.796875 5.691406 -0.644531 5.890625 -0.5625 C 6.085938 -0.476562 6.414062 -0.425781 6.875 -0.40625 L 6.875 0 C 6.15625 -0.0390625 5.144531 -0.0625 3.84375 -0.0625 C 2.414062 -0.0625 1.363281 -0.0390625 0.6875 0 L 0.6875 -0.40625 C 1.125 -0.425781 1.445312 -0.476562 1.65625 -0.5625 C 1.863281 -0.644531 2.003906 -0.796875 2.078125 -1.015625 C 2.148438 -1.242188 2.1875 -1.613281 2.1875 -2.125 L 2.1875 -12.0625 C 2.1875 -12.570312 2.148438 -12.941406 2.078125 -13.171875 C 2.003906 -13.398438 1.863281 -13.550781 1.65625 -13.625 C 1.445312 -13.707031 1.125 -13.765625 0.6875 -13.796875 L 0.6875 -14.1875 C 1.363281 -14.15625 2.378906 -14.140625 3.734375 -14.140625 L 5.953125 -14.15625 C 6.222656 -14.164062 6.53125 -14.171875 6.875 -14.171875 C 8.71875 -14.171875 10.101562 -13.867188 11.03125 -13.265625 C 11.957031 -12.671875 12.421875 -11.8125 12.421875 -10.6875 C 12.421875 -9.738281 12.070312 -8.898438 11.375 -8.171875 C 10.6875 -7.453125 9.539062 -7 7.9375 -6.8125 C 9.144531 -6.707031 10.039062 -6.445312 10.625 -6.03125 C 11.207031 -5.613281 11.585938 -4.992188 11.765625 -4.171875 L 12.234375 -2.109375 C 12.335938 -1.566406 12.457031 -1.1875 12.59375 -0.96875 C 12.738281 -0.757812 12.9375 -0.65625 13.1875 -0.65625 C 13.351562 -0.675781 13.488281 -0.71875 13.59375 -0.78125 C 13.707031 -0.84375 13.84375 -0.957031 14 -1.125 Z M 6.609375 -13.796875 C 6.253906 -13.796875 5.992188 -13.75 5.828125 -13.65625 C 5.660156 -13.5625 5.539062 -13.394531 5.46875 -13.15625 C 5.40625 -12.914062 5.375 -12.550781 5.375 -12.0625 L 5.375 -7.140625 L 6.234375 -7.140625 C 7.328125 -7.140625 8.078125 -7.425781 8.484375 -8 C 8.890625 -8.582031 9.09375 -9.40625 9.09375 -10.46875 C 9.09375 -11.5625 8.898438 -12.390625 8.515625 -12.953125 C 8.128906 -13.515625 7.492188 -13.796875 6.609375 -13.796875 Z M 6.609375 -13.796875 "/></g></g></g><g fill="#000000" fill-opacity="1"><g transform="translate(28.493788, 45.329532)"><g><path d="M 13.453125 -13.796875 C 13.015625 -13.722656 12.691406 -13.609375 12.484375 -13.453125 C 12.273438 -13.296875 12.132812 -13.039062 12.0625 -12.6875 C 11.988281 -12.34375 11.953125 -11.828125 11.953125 -11.140625 L 11.953125 -5.828125 C 11.953125 -3.921875 11.675781 -2.503906 11.125 -1.578125 C 10.757812 -0.992188 10.238281 -0.535156 9.5625 -0.203125 C 8.882812 0.117188 8.050781 0.28125 7.0625 0.28125 C 5.507812 0.28125 4.304688 -0.0507812 3.453125 -0.71875 C 2.835938 -1.21875 2.421875 -1.84375 2.203125 -2.59375 C 1.992188 -3.351562 1.890625 -4.414062 1.890625 -5.78125 L 1.890625 -12.0625 C 1.890625 -12.570312 1.847656 -12.941406 1.765625 -13.171875 C 1.691406 -13.398438 1.550781 -13.550781 1.34375 -13.625 C 1.144531 -13.707031 0.820312 -13.765625 0.375 -13.796875 L 0.375 -14.1875 C 1.0625 -14.15625 2.109375 -14.140625 3.515625 -14.140625 C 4.898438 -14.140625 5.960938 -14.15625 6.703125 -14.1875 L 6.703125 -13.796875 C 6.210938 -13.765625 5.859375 -13.707031 5.640625 -13.625 C 5.421875 -13.550781 5.269531 -13.398438 5.1875 -13.171875 C 5.113281 -12.941406 5.078125 -12.570312 5.078125 -12.0625 L 5.078125 -4.515625 C 5.078125 -3.109375 5.28125 -2.070312 5.6875 -1.40625 C 6.09375 -0.75 6.8125 -0.421875 7.84375 -0.421875 C 9.175781 -0.421875 10.113281 -0.867188 10.65625 -1.765625 C 11.207031 -2.671875 11.484375 -3.953125 11.484375 -5.609375 L 11.484375 -10.90625 C 11.484375 -11.675781 11.4375 -12.25 11.34375 -12.625 C 11.25 -13 11.066406 -13.269531 10.796875 -13.4375 C 10.535156 -13.601562 10.117188 -13.722656 9.546875 -13.796875 L 9.546875 -14.1875 C 10.046875 -14.15625 10.765625 -14.140625 11.703125 -14.140625 C 12.453125 -14.140625 13.035156 -14.15625 13.453125 -14.1875 Z M 13.453125 -13.796875 "/></g></g></g><g fill="#000000" fill-opacity="1"><g transform="translate(42.303867, 45.329532)"><g><path d="M 13.890625 -13.796875 C 13.453125 -13.722656 13.128906 -13.609375 12.921875 -13.453125 C 12.710938 -13.296875 12.570312 -13.039062 12.5 -12.6875 C 12.425781 -12.34375 12.390625 -11.828125 12.390625 -11.140625 L 12.390625 0.046875 L 11.90625 0.015625 L 11.359375 0.046875 L 2.671875 -10.984375 L 2.671875 -3.28125 C 2.671875 -2.5 2.707031 -1.921875 2.78125 -1.546875 C 2.863281 -1.179688 3.035156 -0.914062 3.296875 -0.75 C 3.566406 -0.582031 4.003906 -0.46875 4.609375 -0.40625 L 4.609375 0 C 4.085938 -0.0390625 3.367188 -0.0625 2.453125 -0.0625 C 1.710938 -0.0625 1.128906 -0.0390625 0.703125 0 L 0.703125 -0.40625 C 1.140625 -0.46875 1.460938 -0.578125 1.671875 -0.734375 C 1.878906 -0.898438 2.019531 -1.15625 2.09375 -1.5 C 2.164062 -1.851562 2.203125 -2.367188 2.203125 -3.046875 L 2.203125 -12.0625 C 2.203125 -12.570312 2.164062 -12.941406 2.09375 -13.171875 C 2.019531 -13.398438 1.878906 -13.550781 1.671875 -13.625 C 1.460938 -13.707031 1.140625 -13.765625 0.703125 -13.796875 L 0.703125 -14.1875 C 1.128906 -14.15625 1.710938 -14.140625 2.453125 -14.140625 C 3.117188 -14.140625 3.691406 -14.15625 4.171875 -14.1875 L 11.921875 -4.625 L 11.921875 -10.90625 C 11.921875 -11.695312 11.878906 -12.273438 11.796875 -12.640625 C 11.722656 -13.003906 11.550781 -13.269531 11.28125 -13.4375 C 11.019531 -13.601562 10.585938 -13.722656 9.984375 -13.796875 L 9.984375 -14.1875 C 10.503906 -14.15625 11.226562 -14.140625 12.15625 -14.140625 C 12.894531 -14.140625 13.472656 -14.15625 13.890625 -14.1875 Z M 13.890625 -13.796875 "/></g></g></g><g fill="#000000" fill-opacity="1"><g transform="translate(56.775386, 45.329532)"><g><path d="M 12.25 -1.6875 C 12.425781 -1.238281 12.625 -0.914062 12.84375 -0.71875 C 13.070312 -0.519531 13.296875 -0.414062 13.515625 -0.40625 L 13.515625 0 C 12.710938 -0.0390625 11.695312 -0.0625 10.46875 -0.0625 C 9.101562 -0.0625 8.085938 -0.0390625 7.421875 0 L 7.421875 -0.40625 C 7.921875 -0.425781 8.28125 -0.484375 8.5 -0.578125 C 8.71875 -0.679688 8.828125 -0.863281 8.828125 -1.125 C 8.828125 -1.363281 8.742188 -1.679688 8.578125 -2.078125 L 7.375 -5.375 L 3 -5.375 L 2.484375 -3.984375 C 2.109375 -3.023438 1.921875 -2.285156 1.921875 -1.765625 C 1.921875 -1.265625 2.070312 -0.914062 2.375 -0.71875 C 2.675781 -0.53125 3.117188 -0.425781 3.703125 -0.40625 L 3.703125 0 C 2.796875 -0.0390625 1.96875 -0.0625 1.21875 -0.0625 C 0.601562 -0.0625 0.0976562 -0.0390625 -0.296875 0 L -0.296875 -0.40625 C 0.359375 -0.519531 0.929688 -1.21875 1.421875 -2.5 L 6 -14.234375 C 6.144531 -14.222656 6.378906 -14.21875 6.703125 -14.21875 C 7.015625 -14.21875 7.238281 -14.222656 7.375 -14.234375 Z M 7.234375 -5.78125 L 5.25 -11.1875 L 3.171875 -5.78125 Z M 7.234375 -5.78125 "/></g></g></g></svg>