<svg width="1440" height="1080" viewBox="0 0 1440 1080" fill="none" xmlns="http://www.w3.org/2000/svg">
<rect width="1440" height="1080" fill="white"/>
<path d="M128.08 154.152C124.88 148.968 123.28 137.224 123.28 118.92L123.376 113.064C123.376 112.68 123.472 112.392 123.664 112.2C123.856 112.008 124.048 111.912 124.24 111.912L124.528 111.816C129.84 111.24 134.768 109.096 139.312 105.384C143.92 101.608 146.224 97.288 146.224 92.424C146.224 90.504 145.712 88.84 144.688 87.432C143.728 85.96 142.416 84.872 140.752 84.168C139.152 83.4 137.488 82.856 135.76 82.536C134.096 82.152 132.432 81.96 130.768 81.96C127.824 81.96 124.912 82.44 122.032 83.4C119.152 84.36 116.624 85.928 114.448 88.104C112.272 90.28 111.184 92.84 111.184 95.784C111.184 97.576 111.696 99.368 112.72 101.16C112.976 101.8 113.104 102.216 113.104 102.408C113.104 102.792 112.912 102.984 112.528 102.984C111.952 102.984 111.216 102.696 110.32 102.12C106.352 99.752 104.368 96.904 104.368 93.576C104.368 89.224 107.024 85.8 112.336 83.304C117.712 80.808 124.016 79.56 131.248 79.56C133.68 79.56 136.048 79.72 138.352 80.04C140.72 80.36 143.248 80.904 145.936 81.672C148.624 82.44 150.768 83.688 152.368 85.416C154.032 87.08 154.864 89.128 154.864 91.56C154.864 94.824 153.424 98.024 150.544 101.16C147.728 104.296 144.592 106.824 141.136 108.744C137.68 110.664 134.416 112.008 131.344 112.776C130.896 113.096 130.672 113.448 130.672 113.832C130.672 116.136 130.736 118.76 130.864 121.704C130.992 124.584 131.248 128.648 131.632 133.896C132.08 139.08 132.88 143.784 134.032 148.008C135.248 152.168 136.752 155.08 138.544 156.744C138.864 157.064 139.024 157.352 139.024 157.608C139.024 158.12 138.224 158.376 136.624 158.376C134.768 158.376 133.136 158.024 131.728 157.32C130.32 156.616 129.36 155.976 128.848 155.4C128.4 154.824 128.144 154.408 128.08 154.152ZM106.288 137.736C104.944 140.808 103.472 143.592 101.872 146.088C100.272 148.584 98.8 150.536 97.456 151.944C96.112 153.352 94.864 154.536 93.712 155.496C92.56 156.456 91.632 157.096 90.928 157.416L89.968 157.896C89.584 158.088 89.2 158.184 88.816 158.184C88.112 158.184 87.76 157.768 87.76 156.936L88.048 155.784C88.688 153.992 90.864 149.48 94.576 142.248C98.352 134.952 101.904 128.36 105.232 122.472C108.304 116.968 111.248 111.848 114.064 107.112C116.944 102.312 119.024 98.92 120.304 96.936L122.32 93.864C123.92 91.688 125.552 90.024 127.216 88.872C128.88 87.72 130.224 87.144 131.248 87.144C131.952 87.144 132.304 87.4 132.304 87.912C132.304 88.296 132.048 88.968 131.536 89.928C131.088 90.696 129.296 93.896 126.16 99.528C123.088 105.096 119.408 111.912 115.12 119.976C110.896 127.976 107.952 133.896 106.288 137.736ZM164.463 120.456C165.231 118.856 165.615 117.448 165.615 116.232C165.615 115.208 165.295 114.696 164.655 114.696C164.271 114.696 163.823 114.824 163.311 115.08C162.863 115.272 162.511 115.496 162.255 115.752L161.775 116.136C159.791 117.864 157.295 121.032 154.287 125.64C151.343 130.184 149.871 133.096 149.871 134.376C149.871 134.632 149.935 134.76 150.062 134.76C150.447 134.76 151.279 134.44 152.559 133.8C153.903 133.16 155.791 131.656 158.223 129.288C160.719 126.92 162.799 123.976 164.463 120.456ZM160.143 142.44C163.535 139.304 168.399 134.12 174.735 126.888C174.927 126.696 175.087 126.6 175.215 126.6C175.343 126.6 175.407 126.728 175.407 126.984C175.407 128.2 174.927 129.384 173.967 130.536C169.231 135.784 165.039 140.168 161.391 143.688C158.703 146.376 155.503 148.968 151.791 151.464C148.079 153.896 145.007 155.112 142.575 155.112C139.631 155.112 138.159 153.064 138.159 148.968C138.159 142.184 140.655 135.08 145.647 127.656C150.703 120.232 156.527 115.208 163.119 112.584C165.871 111.432 168.367 110.856 170.607 110.856C173.103 110.856 174.351 111.848 174.351 113.832C174.351 117.544 171.727 121.8 166.479 126.6C161.231 131.4 155.343 135.048 148.815 137.544C148.559 137.608 148.335 137.832 148.143 138.216C147.183 140.84 146.703 143.176 146.703 145.224C146.703 147.528 147.567 148.68 149.295 148.68C152.047 148.68 155.663 146.6 160.143 142.44ZM193.561 146.952C188.249 151.816 184.601 154.248 182.617 154.248C181.721 154.248 181.273 153.736 181.273 152.712C181.273 151.432 181.817 149.48 182.905 146.856C184.057 144.232 185.209 141.928 186.361 139.944L188.089 136.968C188.345 136.52 188.473 136.232 188.473 136.104C188.473 135.976 188.409 135.912 188.281 135.912C188.025 135.912 187.545 136.264 186.841 136.968C184.921 139.08 182.713 141.352 180.217 143.784C177.785 146.152 175.801 148.008 174.265 149.352L172.057 151.272C169.561 153.192 167.641 154.152 166.297 154.152C164.889 154.152 164.185 153.064 164.185 150.888C164.185 149.8 164.505 148.136 165.145 145.896C165.721 143.656 166.169 142.152 166.489 141.384C167.961 137.8 169.785 134.312 171.961 130.92C174.201 127.528 176.825 124.296 179.833 121.224C182.841 118.088 186.329 115.56 190.297 113.64C194.329 111.72 198.489 110.76 202.777 110.76C206.361 110.76 208.153 111.304 208.153 112.392C208.153 113.032 207.353 113.352 205.753 113.352C199.865 113.352 194.329 115.88 189.145 120.936C184.025 125.928 179.865 131.688 176.665 138.216C175.769 140.008 175.321 141.512 175.321 142.728C175.321 143.432 175.545 143.784 175.993 143.784C176.761 143.784 177.753 143.24 178.969 142.152C179.737 141.448 180.761 140.52 182.041 139.368C183.385 138.216 185.529 136.008 188.473 132.744C191.417 129.48 193.753 126.44 195.481 123.624C195.737 123.112 196.121 122.504 196.633 121.8C197.209 121.096 198.265 120.168 199.801 119.016C201.337 117.8 202.873 117.192 204.409 117.192C205.241 117.192 205.657 117.416 205.657 117.864C205.657 117.992 205.561 118.216 205.369 118.536C205.113 119.048 204.377 120.328 203.161 122.376C202.009 124.424 200.921 126.376 199.897 128.232C198.873 130.024 197.785 132.008 196.633 134.184C195.481 136.296 194.553 138.12 193.849 139.656C193.209 141.192 192.889 142.216 192.889 142.728C192.889 143.112 193.049 143.304 193.369 143.304C194.329 143.304 196.665 141.448 200.377 137.736C203.193 134.792 206.489 131.176 210.265 126.888C210.457 126.696 210.617 126.6 210.745 126.6C210.873 126.6 210.937 126.728 210.937 126.984C210.937 128.2 210.457 129.384 209.497 130.536C203.225 137.512 197.913 142.984 193.561 146.952ZM229.092 106.248C233.636 103.048 237.7 99.432 241.284 95.4C244.932 91.304 247.684 87.56 249.54 84.168C251.46 80.712 252.9 77.736 253.86 75.24C254.82 72.744 255.3 70.952 255.3 69.864C255.3 69.224 255.076 68.904 254.628 68.904C253.732 68.904 252.644 69.544 251.364 70.824C248.932 73.256 246.18 76.776 243.108 81.384C240.036 85.992 237.54 89.96 235.62 93.288C233.764 96.552 231.332 100.936 228.324 106.44C228.58 106.44 228.836 106.376 229.092 106.248ZM218.82 138.504C221.508 135.816 225.06 131.944 229.476 126.888C229.668 126.696 229.828 126.6 229.956 126.6C230.084 126.6 230.148 126.728 230.148 126.984C230.148 128.2 229.668 129.384 228.708 130.536C223.972 135.784 219.78 140.168 216.132 143.688C208.132 151.24 203.044 155.016 200.868 155.016C199.908 155.016 199.428 154.344 199.428 153C199.428 152.296 199.524 151.528 199.716 150.696C199.844 149.864 200.1 148.968 200.484 148.008C200.868 146.984 201.188 146.152 201.444 145.512C201.764 144.808 202.18 143.848 202.692 142.632C203.268 141.352 203.652 140.488 203.844 140.04C205.636 136.008 211.14 125.384 220.356 108.168C232.964 85.192 244.548 71.08 255.108 65.832C256.644 65.064 258.18 64.68 259.716 64.68C261.508 64.68 262.404 65.512 262.404 67.176C262.404 71.016 261.092 75.24 258.468 79.848C255.844 84.392 252.644 88.584 248.868 92.424C245.092 96.264 241.38 99.624 237.732 102.504C234.148 105.384 231.044 107.56 228.42 109.032C228.036 109.16 227.684 109.448 227.364 109.896C224.548 114.44 221.796 119.336 219.108 124.584C216.42 129.768 214.404 133.864 213.06 136.872L211.14 141.288C210.82 142.248 210.66 142.888 210.66 143.208C210.66 143.784 210.884 144.072 211.332 144.072C212.612 144.072 215.108 142.216 218.82 138.504ZM233.623 143.688C226.135 150.728 221.335 154.248 219.223 154.248C218.135 154.248 217.591 153.512 217.591 152.04C217.591 150.568 218.167 148.424 219.319 145.608C220.471 142.792 221.623 140.328 222.775 138.216L224.503 135.144C229.367 126.632 233.047 120.52 235.543 116.808C236.631 115.208 238.007 113.864 239.671 112.776C241.399 111.624 242.999 111.048 244.471 111.048C244.983 111.048 245.239 111.272 245.239 111.72C245.239 112.04 245.015 112.648 244.567 113.544C243.799 114.952 241.911 118.312 238.903 123.624C235.895 128.936 234.103 132.136 233.527 133.224C230.903 137.832 229.591 140.904 229.591 142.44C229.591 143.016 229.783 143.304 230.167 143.304C230.807 143.304 232.855 141.704 236.311 138.504C238.999 135.816 242.551 131.944 246.967 126.888C247.159 126.696 247.319 126.6 247.447 126.6C247.575 126.6 247.639 126.728 247.639 126.984C247.639 128.2 247.159 129.384 246.199 130.536C241.463 135.784 237.271 140.168 233.623 143.688ZM246.391 105.576C244.791 105.576 243.991 104.616 243.991 102.696C243.991 100.904 244.663 99.112 246.007 97.32C247.351 95.464 248.823 94.536 250.423 94.536C252.343 94.536 253.303 95.624 253.303 97.8C253.303 99.592 252.567 101.352 251.095 103.08C249.623 104.744 248.055 105.576 246.391 105.576ZM260.469 142.056C259.317 145.192 257.493 147.848 254.997 150.024C252.501 152.136 250.165 153.576 247.989 154.344C245.877 155.112 243.957 155.496 242.229 155.496C237.557 155.496 235.22 153.672 235.22 150.024C235.22 146.312 237.268 142.952 241.365 139.944C243.285 138.536 245.365 137.608 247.605 137.16C247.925 137.16 248.085 137.288 248.085 137.544C248.085 137.672 248.021 137.8 247.893 137.928C246.293 139.144 244.757 141.032 243.285 143.592C241.877 146.152 241.173 148.392 241.173 150.312C241.173 152.232 241.973 153.192 243.573 153.192C244.853 153.192 246.101 152.68 247.317 151.656C248.597 150.568 249.557 149.48 250.197 148.392L251.157 146.856C252.437 144.808 253.493 141.544 254.325 137.064C255.221 132.584 255.797 128.616 256.053 125.16L256.341 119.976C256.341 119.464 256.245 119.208 256.053 119.208L255.669 119.4L246.165 130.536C245.461 131.368 244.981 131.784 244.725 131.784C244.405 131.784 244.245 131.56 244.245 131.112C244.245 130.28 244.469 129.64 244.917 129.192L245.781 128.136C253.077 119.944 257.237 114.984 258.261 113.256C259.221 111.784 260.629 110.504 262.484 109.416C264.277 108.392 266.389 107.88 268.821 107.88C269.461 107.88 269.781 108.136 269.781 108.648C269.781 108.968 269.525 109.256 269.013 109.512C268.821 109.576 268.565 109.736 268.245 109.992C267.989 110.184 267.477 110.696 266.709 111.528C266.005 112.36 265.365 113.32 264.789 114.408C264.213 115.496 263.701 117.032 263.253 119.016C262.805 120.936 262.581 123.08 262.581 125.448C262.581 132.808 261.877 138.344 260.469 142.056ZM318.207 138.504C320.895 135.816 324.447 131.944 328.863 126.888C329.055 126.696 329.215 126.6 329.343 126.6C329.471 126.6 329.535 126.728 329.535 126.984C329.535 128.2 329.055 129.384 328.095 130.536C323.359 135.784 319.167 140.168 315.519 143.688C307.967 150.728 303.007 154.248 300.639 154.248C299.615 154.248 299.103 153.64 299.103 152.424C299.103 151.208 299.743 149.192 301.023 146.376C302.367 143.56 303.679 141 304.959 138.696C306.303 136.392 307.967 133.576 309.951 130.248C311.999 126.92 313.087 125.128 313.215 124.872C314.367 123.016 314.943 121.832 314.943 121.32C314.943 121 314.783 120.84 314.463 120.84L313.119 121.32C310.175 123.432 306.655 126.728 302.559 131.208C298.463 135.624 295.103 139.496 292.479 142.824L288.543 147.912C285.599 152.136 282.719 154.248 279.903 154.248C279.071 154.248 278.655 153.992 278.655 153.48C278.655 152.904 279.263 151.4 280.479 148.968C281.695 146.472 282.911 144.136 284.127 141.96L285.951 138.696C286.399 137.8 287.487 135.88 289.215 132.936C291.007 129.928 292.479 127.368 293.631 125.256C294.847 123.08 295.455 121.736 295.455 121.224C295.455 120.904 295.327 120.744 295.071 120.744L293.727 121.32C290.719 123.432 287.167 126.728 283.071 131.208C278.975 135.624 275.647 139.496 273.087 142.824L269.151 147.912C266.143 152.072 263.262 154.152 260.51 154.152C259.678 154.152 259.262 153.928 259.262 153.48C259.262 152.904 259.87 151.4 261.086 148.968C262.302 146.472 263.519 144.136 264.735 141.96L266.559 138.696L275.871 122.184C277.407 119.304 279.263 116.744 281.439 114.504C283.615 112.2 285.887 111.048 288.255 111.048C288.767 111.048 289.023 111.272 289.023 111.72C289.023 112.104 288.639 112.936 287.871 114.216C287.167 115.432 286.111 117.16 284.703 119.4C283.359 121.576 282.207 123.592 281.247 125.448C280.671 126.536 279.967 127.784 279.135 129.192C278.367 130.536 277.727 131.688 277.215 132.648C276.703 133.544 276.351 134.184 276.159 134.568C275.967 134.952 275.871 135.24 275.871 135.432C275.871 135.56 275.935 135.624 276.062 135.624C276.255 135.624 276.575 135.4 277.023 134.952C278.239 133.544 279.807 131.784 281.727 129.672C283.711 127.56 287.039 124.392 291.711 120.168C296.383 115.88 300.223 113 303.231 111.528C303.871 111.208 304.511 111.048 305.151 111.048C306.047 111.048 306.495 111.496 306.495 112.392C306.495 114.056 304.607 118.376 300.831 125.352C300.511 125.928 299.839 127.048 298.815 128.712C297.855 130.376 297.023 131.816 296.319 133.032C295.679 134.248 295.359 135.016 295.359 135.336C295.359 135.528 295.423 135.624 295.551 135.624C295.743 135.624 296.063 135.4 296.511 134.952C297.727 133.544 299.295 131.784 301.215 129.672C303.199 127.56 306.495 124.392 311.103 120.168C315.775 115.88 319.615 113 322.623 111.528C323.391 111.208 324.063 111.048 324.639 111.048C325.599 111.048 326.079 111.496 326.079 112.392C326.079 112.648 325.951 113.224 325.695 114.12C325.439 114.952 324.703 116.712 323.487 119.4C322.271 122.024 320.671 124.936 318.687 128.136C313.823 135.624 311.391 140.328 311.391 142.248C311.391 142.824 311.583 143.112 311.967 143.112C313.055 143.112 315.135 141.576 318.207 138.504ZM346.15 120.456C346.918 118.856 347.302 117.448 347.302 116.232C347.302 115.208 346.982 114.696 346.342 114.696C345.958 114.696 345.51 114.824 344.998 115.08C344.55 115.272 344.198 115.496 343.942 115.752L343.462 116.136C341.478 117.864 338.982 121.032 335.974 125.64C333.03 130.184 331.558 133.096 331.558 134.376C331.558 134.632 331.622 134.76 331.75 134.76C332.134 134.76 332.966 134.44 334.246 133.8C335.59 133.16 337.478 131.656 339.91 129.288C342.406 126.92 344.486 123.976 346.15 120.456ZM341.83 142.44C345.222 139.304 350.086 134.12 356.422 126.888C356.614 126.696 356.774 126.6 356.902 126.6C357.03 126.6 357.094 126.728 357.094 126.984C357.094 128.2 356.614 129.384 355.654 130.536C350.918 135.784 346.726 140.168 343.078 143.688C340.39 146.376 337.19 148.968 333.478 151.464C329.766 153.896 326.694 155.112 324.262 155.112C321.318 155.112 319.846 153.064 319.846 148.968C319.846 142.184 322.342 135.08 327.334 127.656C332.39 120.232 338.214 115.208 344.806 112.584C347.558 111.432 350.054 110.856 352.294 110.856C354.79 110.856 356.038 111.848 356.038 113.832C356.038 117.544 353.414 121.8 348.166 126.6C342.918 131.4 337.03 135.048 330.502 137.544C330.246 137.608 330.022 137.832 329.83 138.216C328.87 140.84 328.39 143.176 328.39 145.224C328.39 147.528 329.254 148.68 330.982 148.68C333.734 148.68 337.35 146.6 341.83 142.44Z" fill="black"/>
</svg>
